<?xml version="1.0" encoding="utf-8"?>
<!-- Generator: Adobe Illustrator 16.0.4, SVG Export Plug-In . SVG Version: 6.00 Build 0)  -->
<!DOCTYPE svg PUBLIC "-//W3C//DTD SVG 1.1//EN" "http://www.w3.org/Graphics/SVG/1.1/DTD/svg11.dtd">
<svg version="1.1" xmlns="http://www.w3.org/2000/svg" xmlns:xlink="http://www.w3.org/1999/xlink" x="0px" y="0px"
	 width="698.069px" height="1400px" viewBox="150.967 0 698.069 1400" enable-background="new 150.967 0 698.069 1400"
	 xml:space="preserve">
<filter  width="103.8%" height="105.7%" id="new-task-f" filterUnits="objectBoundingBox" x="-1.9%" y="-1.4%">
	<feOffset  dy="1" in="SourceAlpha" result="shadowOffsetOuter1"></feOffset>
	<feComposite  in="shadowOffsetOuter1" in2="SourceAlpha" operator="out" result="shadowOffsetOuter1"></feComposite>
	<feColorMatrix  values="0 0 0 0 0 0 0 0 0 0 0 0 0 0 0 0 0 0 0.35 0" in="shadowOffsetOuter1"></feColorMatrix>
</filter>
<filter  width="100.8%" height="105.7%" id="new-task-d" filterUnits="objectBoundingBox" x="-.4%" y="-1.4%">
	<feOffset  dy="1" in="SourceAlpha" result="shadowOffsetOuter1"></feOffset>
	<feComposite  in="shadowOffsetOuter1" in2="SourceAlpha" operator="out" result="shadowOffsetOuter1"></feComposite>
	<feColorMatrix  values="0 0 0 0 0 0 0 0 0 0 0 0 0 0 0 0 0 0 0.35 0" in="shadowOffsetOuter1"></feColorMatrix>
</filter>
<filter  width="101.4%" height="105.7%" id="new-task-b" filterUnits="objectBoundingBox" x="-.7%" y="-1.4%">
	<feOffset  dy="1" in="SourceAlpha" result="shadowOffsetOuter1"></feOffset>
	<feComposite  in="shadowOffsetOuter1" in2="SourceAlpha" operator="out" result="shadowOffsetOuter1"></feComposite>
	<feColorMatrix  values="0 0 0 0 0 0 0 0 0 0 0 0 0 0 0 0 0 0 0.35 0" in="shadowOffsetOuter1"></feColorMatrix>
</filter>
<g id="Layer_1">
	<g>
		<path fill="#D20009" d="M845.167,359.636v926.334c0,39.65-4.129,54.027-11.881,68.523s-19.129,25.873-33.625,33.625
			S770.788,1400,731.137,1400h-460.34c-39.65,0-54.028-4.129-68.524-11.881s-25.872-19.129-33.624-33.625
			s-11.881-28.873-11.881-68.523V471.823h-0.843c-1.724,0-2.349-0.182-2.979-0.519c-0.63-0.337-1.125-0.832-1.462-1.462
			s-0.517-1.255-0.517-2.979v-80.968c0-1.724,0.18-2.349,0.517-2.979s0.832-1.125,1.462-1.462c0.63-0.337,1.255-0.517,2.979-0.517
			h0.843v-21.271h-0.843c-1.724,0-2.349-0.179-2.979-0.517c-0.63-0.337-1.125-0.832-1.462-1.462s-0.517-1.255-0.517-2.979V273.74
			c0-1.724,0.18-2.349,0.517-2.979c0.337-0.63,0.832-1.125,1.462-1.462c0.63-0.337,1.255-0.517,2.979-0.517h0.843v-52.21h-0.843
			c-1.724,0-2.349-0.18-2.979-0.517c-0.63-0.337-1.125-0.832-1.462-1.462c-0.337-0.63-0.517-1.255-0.517-2.979v-40.361
			c0-1.724,0.18-2.349,0.517-2.979s0.832-1.125,1.462-1.462c0.63-0.337,1.255-0.517,2.979-0.517h0.843v-52.269
			c0-39.65,4.128-54.029,11.881-68.524c7.752-14.496,19.128-25.872,33.624-33.624C216.769,4.128,231.146,0,270.797,0h460.34
			c39.65,0,54.027,4.128,68.523,11.881c14.496,7.752,25.873,19.128,33.625,33.624s11.881,28.874,11.881,68.524v154.788
			c0.941,0.065,1.414,0.23,1.889,0.484c0.629,0.337,1.125,0.832,1.461,1.462c0.338,0.63,0.52,1.255,0.52,2.979v80.969
			c0,1.724-0.182,2.349-0.52,2.979c-0.336,0.63-0.832,1.125-1.461,1.462C846.581,359.406,846.108,359.57,845.167,359.636z
			 M500.967,1361.326c25.197,0,46.408-21.211,46.408-46.408c0-27.133-21.211-48.344-46.408-48.344
			c-27.133,0-48.344,21.211-48.344,48.344C452.624,1340.115,473.834,1361.326,500.967,1361.326z M500.967,1357.458
			c-24.996,0-44.475-19.479-44.475-42.541c0-24.996,19.479-44.475,44.475-44.475c23.062,0,42.541,19.479,42.541,44.475
			C543.508,1337.978,524.03,1357.458,500.967,1357.458z M382.043,94.751c5.875,0,10.637-4.762,10.637-10.635
			c0-5.874-4.762-10.636-10.637-10.636c-5.873,0-10.635,4.762-10.635,10.636S376.17,94.751,382.043,94.751z M500.967,52.21
			c3.203,0,5.801-2.597,5.801-5.801s-2.598-5.801-5.801-5.801c-3.205,0-5.801,2.597-5.801,5.801S497.762,52.21,500.967,52.21z
			 M443.922,79.282c-2.67,0-4.834,2.165-4.834,4.834s2.164,4.834,4.834,4.834H558.01c2.67,0,4.836-2.164,4.836-4.834
			s-2.166-4.834-4.836-4.834H443.922z"/>
		<path fill="#0A0A0A" d="M197.375,156.63h605.249c2.137,0,3.869,1.731,3.869,3.867V1237.57c0,2.135-1.732,3.865-3.869,3.865
			H197.375c-2.136,0-3.867-1.73-3.867-3.865V160.497C193.508,158.361,195.24,156.63,197.375,156.63z"/>
		<g display="none">
			<g display="inline">
				<rect id="new-task-a" x="197.375" y="887.57" fill-opacity="0.6" width="605.249" height="348.064"/>
			</g>
			<g display="inline">
				<rect id="new-task-a_1_" x="197.375" y="887.57" fill-opacity="0.1" width="605.249" height="348.064"/>
			</g>
		</g>
		<g display="none" filter="url(#new-task-b)">
			<path id="new-task-c_2_" display="inline" d="M666.227,1161.511h121.889c5.34,0,9.668,4.328,9.668,9.668v48.342
				c0,5.342-4.328,9.672-9.668,9.672H666.227c-5.34,0-9.668-4.33-9.668-9.672v-48.342
				C656.559,1165.839,660.887,1161.511,666.227,1161.511z"/>
		</g>
		<g display="none">
			<path id="new-task-c_1_" display="inline" fill="#FFFFFF" fill-opacity="0.13" d="M666.227,1161.511h121.889
				c5.34,0,9.668,4.328,9.668,9.668v48.342c0,5.342-4.328,9.672-9.668,9.672H666.227c-5.34,0-9.668-4.33-9.668-9.672v-48.342
				C656.559,1165.839,660.887,1161.511,666.227,1161.511z"/>
		</g>
		<path display="none" fill="#FFFFFF" d="M686.844,1204.375v-16.287h2.48v2.418h0.24c0.482-1.586,2.355-2.703,4.518-2.703
			c0.424,0,0.967,0.029,1.299,0.074v2.6c-0.211-0.061-1.146-0.15-1.662-0.15c-2.477,0-4.273,1.662-4.273,3.959v10.092
			L686.844,1204.375L686.844,1204.375z M704.051,1190.097c-2.598,0-4.41,1.904-4.605,4.789h8.975
			C708.358,1192.001,706.635,1190.097,704.051,1190.097z M708.342,1200.16h2.6c-0.785,2.795-3.293,4.502-6.857,4.502
			c-4.518,0-7.342-3.266-7.342-8.416c0-5.121,2.869-8.443,7.342-8.443c4.396,0,7.07,3.127,7.07,8.188v0.998h-11.709v0.119
			c0.137,3.219,1.934,5.258,4.697,5.258C706.243,1202.365,707.663,1201.593,708.342,1200.16z M715.7,1183.873h2.6v4.215h3.625v2.176
			h-3.625v9.219c0,1.918,0.727,2.732,2.416,2.732c0.469,0,0.727-0.016,1.209-0.061v2.188c-0.514,0.092-1.012,0.15-1.523,0.15
			c-3.355,0-4.699-1.238-4.699-4.352v-9.881h-2.629v-2.176h2.629L715.7,1183.873L715.7,1183.873z M738.407,1188.087v16.287h-2.48
			v-2.555h-0.24c-0.814,1.812-2.555,2.842-5.047,2.842c-3.654,0-5.559-2.176-5.559-6.029v-10.545h2.598V1198
			c0,2.93,1.088,4.289,3.688,4.289c2.871,0,4.439-1.707,4.439-4.562v-9.639H738.407z M742.682,1204.375v-16.287h2.48v2.418h0.24
			c0.482-1.586,2.355-2.703,4.518-2.703c0.424,0,0.967,0.029,1.299,0.074v2.6c-0.211-0.061-1.146-0.15-1.662-0.15
			c-2.477,0-4.271,1.662-4.271,3.959v10.092L742.682,1204.375L742.682,1204.375z M754.149,1204.375v-16.287h2.479v2.568h0.24
			c0.814-1.797,2.402-2.854,4.896-2.854c3.654,0,5.695,2.16,5.695,6.027v10.545h-2.6v-9.91c0-2.932-1.238-4.322-3.836-4.322
			c-2.602,0-4.275,1.738-4.275,4.596v9.639L754.149,1204.375L754.149,1204.375z"/>
		<g display="none" filter="url(#new-task-d)">
			<path id="new-task-e_2_" display="inline" d="M423.319,1161.511h213.885c5.34,0,9.668,4.328,9.668,9.668v48.342
				c0,5.342-4.328,9.672-9.668,9.672H423.319c-5.342,0-9.668-4.33-9.668-9.672v-48.342
				C413.651,1165.839,417.979,1161.511,423.319,1161.511z"/>
		</g>
		<g display="none">
			<path id="new-task-e_1_" display="inline" fill="#FFFFFF" fill-opacity="0.3" d="M423.319,1161.511h213.885
				c5.34,0,9.668,4.328,9.668,9.668v48.342c0,5.342-4.328,9.672-9.668,9.672H423.319c-5.342,0-9.668-4.33-9.668-9.672v-48.342
				C413.651,1165.839,417.979,1161.511,423.319,1161.511z"/>
		</g>
		<path display="none" fill="#FFFFFF" d="M491.227,1192.544c0-2.703,2.613-4.742,6.072-4.742c3.414,0,5.787,1.691,6.133,4.365
			h-2.564c-0.35-1.299-1.617-2.16-3.582-2.16c-1.936,0-3.443,0.982-3.443,2.432c0,1.117,0.906,1.812,2.824,2.281l2.508,0.605
			c3.066,0.738,4.547,2.068,4.547,4.412c0,2.914-2.822,4.924-6.523,4.924c-3.625,0-6.119-1.736-6.406-4.441h2.676
			c0.438,1.375,1.736,2.252,3.82,2.252c2.189,0,3.762-1.043,3.762-2.539c0-1.115-0.846-1.873-2.582-2.297l-2.795-0.68
			C492.616,1196.216,491.227,1194.902,491.227,1192.544z M515.112,1187.802c4.152,0,6.844,3.309,6.844,8.432
			c0,5.09-2.705,8.43-6.844,8.43c-2.326,0-4.199-1.014-5.094-2.734h-0.24v7.887h-2.6v-21.727h2.479v2.721h0.242
			C510.942,1188.935,512.891,1187.802,515.112,1187.802z M514.493,1202.32c2.99,0,4.771-2.281,4.771-6.09s-1.781-6.09-4.76-6.09
			c-2.945,0-4.803,2.344-4.803,6.09C509.704,1199.962,511.563,1202.32,514.493,1202.32z M530.43,1202.38
			c2.676,0,4.654-1.754,4.654-4.08v-1.496l-4.383,0.287c-2.479,0.168-3.564,1.027-3.564,2.66
			C527.137,1201.414,528.542,1202.38,530.43,1202.38z M529.948,1204.662c-3.158,0-5.5-1.875-5.5-4.852
			c0-2.916,2.146-4.594,5.938-4.818l4.699-0.287v-1.48c0-2.008-1.254-3.109-3.688-3.109c-1.949,0-3.311,0.74-3.672,2.021h-2.629
			c0.35-2.611,2.916-4.334,6.393-4.334c3.973,0,6.191,2.039,6.191,5.422v11.15h-2.479v-2.402h-0.24
			C533.905,1203.708,532.124,1204.662,529.948,1204.662z M555.342,1193.074h-2.629c-0.422-1.617-1.855-2.934-4.199-2.934
			c-2.93,0-4.771,2.344-4.771,6.029c0,3.762,1.873,6.146,4.771,6.146c2.191,0,3.719-1.014,4.199-2.854h2.629
			c-0.469,2.99-2.898,5.197-6.811,5.197c-4.562,0-7.48-3.311-7.48-8.49c0-5.076,2.9-8.369,7.463-8.369
			C552.473,1187.802,554.889,1190.173,555.342,1193.074z M565.057,1190.097c-2.598,0-4.41,1.904-4.605,4.789h8.973
			C569.362,1192.001,567.641,1190.097,565.057,1190.097z M569.348,1200.16h2.6c-0.785,2.795-3.293,4.502-6.859,4.502
			c-4.516,0-7.342-3.266-7.342-8.416c0-5.121,2.871-8.443,7.342-8.443c4.396,0,7.07,3.127,7.07,8.188v0.998H560.45v0.119
			c0.137,3.219,1.934,5.258,4.699,5.258C567.249,1202.365,568.668,1201.593,569.348,1200.16z"/>
		<g display="none" filter="url(#new-task-f)">
			<path id="new-task-g_1_" display="inline" d="M362.793,1161.511h31.504c5.34,0,9.67,4.328,9.67,9.668v48.342
				c0,5.342-4.33,9.672-9.67,9.672h-31.504c-5.34,0-9.668-4.33-9.668-9.672v-48.342
				C353.125,1165.839,357.454,1161.511,362.793,1161.511z"/>
		</g>
		<g transform="translate(24 404)" display="none">
			
				<linearGradient id="SVGID_1_" gradientUnits="userSpaceOnUse" x1="-221.7241" y1="1004.3823" x2="-221.7241" y2="1003.3823" gradientTransform="matrix(605.2486 0 0 -106.3536 134674.0312 107197)">
				<stop  offset="0" style="stop-color:#0A0A0A;stop-opacity:0"/>
				<stop  offset="1" style="stop-color:#0A0A0A"/>
			</linearGradient>
			
				<rect x="173.375" y="377.216" display="inline" opacity="0.9" fill="url(#SVGID_1_)" enable-background="new    " width="605.249" height="106.354"/>
			
				<linearGradient id="SVGID_2_" gradientUnits="userSpaceOnUse" x1="-221.7241" y1="1004.3823" x2="-221.7241" y2="1003.3823" gradientTransform="matrix(605.2486 0 0 -106.3536 134674.0312 107197)">
				<stop  offset="0" style="stop-color:#101010;stop-opacity:0"/>
				<stop  offset="1" style="stop-color:#101010"/>
			</linearGradient>
			<rect x="173.375" y="377.216" display="inline" fill="url(#SVGID_2_)" width="605.249" height="106.354"/>
		</g>
		<path display="none" opacity="0.3" fill="#D0021B" enable-background="new    " d="M462.583,834.869h4.045
			c0.258,2.068,2.312,3.402,5.25,3.402c2.729,0,4.703-1.396,4.703-3.34c0-1.67-1.271-2.646-4.238-3.34l-3.002-0.688
			c-4.205-0.947-6.18-3.033-6.18-6.484c0-4.207,3.436-7,8.619-7c4.863,0,8.379,2.793,8.57,6.775h-3.965
			c-0.289-2.039-2.086-3.324-4.623-3.324c-2.664,0-4.43,1.285-4.43,3.26c0,1.557,1.172,2.471,4.045,3.129l2.664,0.611
			c4.703,1.059,6.678,3.018,6.678,6.549c0,4.51-3.48,7.318-9.102,7.318C466.307,841.738,462.792,839.074,462.583,834.869z
			 M485.702,819.298h3.963v4.414h3.758v3.178h-3.758v8.619c0,1.734,0.74,2.504,2.408,2.504c0.562,0,0.867-0.029,1.35-0.08v3.115
			c-0.578,0.111-1.316,0.191-2.088,0.191c-4.029,0-5.633-1.363-5.633-4.768v-9.584h-2.777v-3.178h2.777V819.298L485.702,819.298z
			 M502.879,838.32c2.408,0,4.205-1.561,4.205-3.598v-1.396l-3.965,0.258c-2.23,0.145-3.273,0.947-3.273,2.375
			C499.846,837.437,501.114,838.32,502.879,838.32z M501.708,841.449c-3.387,0-5.811-2.057-5.811-5.266
			c0-3.18,2.393-5.008,6.66-5.266l4.525-0.273v-1.477c0-1.717-1.156-2.68-3.307-2.68c-1.83,0-3.082,0.643-3.451,1.83h-3.756
			c0.32-3.1,3.227-5.072,7.398-5.072c4.512,0,7.047,2.199,7.047,5.922v11.99h-3.838v-2.406h-0.27
			C505.928,840.455,504.002,841.449,501.708,841.449z M515.274,841.16v-17.561h3.838v2.73h0.27c0.482-1.734,2.377-3.02,4.639-3.02
			c0.578,0,1.285,0.062,1.654,0.178v3.689c-0.305-0.109-1.365-0.225-2.039-0.225c-2.584,0-4.383,1.604-4.383,4.061v10.146H515.274z
			 M530.479,819.298h3.967v4.414h3.756v3.178h-3.756v8.619c0,1.734,0.736,2.504,2.406,2.504c0.562,0,0.865-0.029,1.35-0.08v3.115
			c-0.578,0.111-1.316,0.191-2.086,0.191c-4.029,0-5.635-1.363-5.635-4.768v-9.584h-2.777v-3.178h2.777L530.479,819.298
			L530.479,819.298z"/>
		<path fill="#656153" d="M787.155,187.566v-10.629c0-1.6-1.305-2.904-2.904-2.904h-32.865c-1.604,0-2.904,1.301-2.904,2.904v10.629
			c0,1.601,1.297,2.904,2.885,2.904h32.906C785.86,190.47,787.155,189.17,787.155,187.566z M787.077,190.47v1.028
			c-0.791,0.57-1.76,0.906-2.805,0.906h1.4h-1.4v-1.934H787.077z M785.674,192.403h1.402H785.674z M787.077,190.47h-2.805v1.934
			h-32.908c-2.66,0-4.816-2.173-4.816-4.837v-10.629c0-2.672,2.168-4.837,4.838-4.837h32.865c2.672,0,4.838,2.173,4.838,4.837
			v10.629c0,1.62-0.795,3.054-2.012,3.932V190.47z"/>
		<path fill="#656153" d="M791.022,178.867c1.668,0.43,2.898,1.944,2.898,3.746c0,1.802-1.23,3.316-2.898,3.746V178.867z"/>
		<path fill="#EEE3C1" d="M752.348,175.967h30.939c1.068,0,1.934,0.866,1.934,1.934v8.702c0,1.068-0.863,1.934-1.934,1.934h-30.939
			c-1.066,0-1.934-0.866-1.934-1.934V177.9C750.415,176.833,751.28,175.967,752.348,175.967z"/>
		<path fill="#EEE3C1" d="M482.354,190.877c-3.922,0-6.242-3.172-6.242-8.6c0-5.405,2.354-8.566,6.242-8.566
			c3.875,0,6.23,3.161,6.23,8.588C488.584,187.705,486.262,190.877,482.354,190.877z M482.354,188.453
			c2.072,0,3.273-2.153,3.273-6.175c0-4-1.225-6.13-3.273-6.13c-2.051,0-3.285,2.142-3.285,6.13
			C479.067,186.3,480.28,188.453,482.354,188.453z M493.875,188.736c-1.064,0-1.812-0.771-1.812-1.791
			c0-1.031,0.748-1.79,1.812-1.79c1.076,0,1.812,0.759,1.812,1.79C495.688,187.966,494.952,188.736,493.875,188.736z
			 M493.875,180.238c-1.064,0-1.812-0.759-1.812-1.779c0-1.031,0.748-1.79,1.812-1.79c1.076,0,1.812,0.759,1.812,1.79
			C495.688,179.479,494.952,180.238,493.875,180.238z M505.411,190.877c-3.922,0-6.244-3.172-6.244-8.6
			c0-5.405,2.357-8.566,6.244-8.566c3.873,0,6.229,3.161,6.229,8.588C511.641,187.705,509.319,190.877,505.411,190.877z
			 M505.411,188.453c2.072,0,3.271-2.153,3.271-6.175c0-4-1.223-6.13-3.271-6.13s-3.287,2.142-3.287,6.13
			C502.124,186.3,503.336,188.453,505.411,188.453z M521.079,190.866c-2.4,0-4.293-1.133-5.381-3.229
			c-0.762-1.337-1.156-3.082-1.156-5.167c0-5.496,2.459-8.759,6.629-8.759c2.98,0,5.268,1.768,5.756,4.453h-2.924
			c-0.363-1.235-1.449-2.005-2.854-2.005c-2.393,0-3.809,2.232-3.809,5.971h0.193c0.77-1.552,2.311-2.447,4.234-2.447
			c3.105,0,5.385,2.3,5.385,5.438C527.153,188.487,524.637,190.866,521.079,190.866z M521.045,188.43c1.836,0,3.24-1.394,3.24-3.218
			c0-1.87-1.348-3.207-3.217-3.207c-1.871,0-3.24,1.337-3.24,3.161C517.829,187.025,519.221,188.43,521.045,188.43z
			 M263.401,186.483l-4.103,3.986l-4.182-4.051c1.001-1.109,2.473-1.811,4.114-1.811
			C260.902,184.608,262.399,185.336,263.401,186.483z M267.614,182.39l-2.105,2.045c-1.545-1.665-3.786-2.712-6.279-2.712
			c-2.463,0-4.68,1.022-6.223,2.653l-2.108-2.042c2.083-2.152,5.045-3.497,8.331-3.497
			C262.544,178.837,265.528,180.205,267.614,182.39z M271.823,178.301l-2.104,2.044c-2.626-2.704-6.354-4.393-10.489-4.393
			c-4.108,0-7.815,1.667-10.438,4.341l-2.107-2.041c3.163-3.196,7.614-5.186,12.545-5.186
			C264.186,173.066,268.658,175.076,271.823,178.301z M234.116,173.061c0-0.531,0.446-0.961,0.978-0.961h2.878
			c0.54,0,0.978,0.418,0.978,0.961v16.447c0,0.531-0.446,0.962-0.978,0.962h-2.878c-0.54,0-0.978-0.418-0.978-0.962V173.061z
			 M226.381,177.907c0-0.538,0.446-0.974,0.978-0.974h2.878c0.54,0,0.978,0.45,0.978,0.974v11.589c0,0.538-0.446,0.974-0.978,0.974
			h-2.878c-0.54,0-0.978-0.451-0.978-0.974V177.907z M218.646,181.764c0-0.532,0.446-0.962,0.978-0.962h2.878
			c0.54,0,0.978,0.416,0.978,0.962v7.744c0,0.531-0.446,0.962-0.978,0.962h-2.878c-0.54,0-0.978-0.416-0.978-0.962V181.764z
			 M210.912,185.626c0-0.529,0.446-0.958,0.978-0.958h2.878c0.54,0,0.979,0.417,0.979,0.958v3.885c0,0.529-0.446,0.958-0.979,0.958
			h-2.878c-0.54,0-0.978-0.417-0.978-0.958V185.626z"/>
	</g>
</g>
<g id="Layer_2">
	
		<rect x="565.752" y="266.348" fill="none" stroke="#EDE4BC" stroke-width="4" stroke-miterlimit="10" width="28.525" height="17.99"/>
	
		<line fill="none" stroke="#EDE4BC" stroke-width="4" stroke-miterlimit="10" x1="564.131" y1="292.395" x2="596.223" y2="292.395"/>
	<line fill="none" stroke="#EDE4BC" stroke-width="4" stroke-miterlimit="10" x1="564.131" y1="299.62" x2="596.223" y2="299.62"/>
	<circle fill="none" stroke="#EDE4BC" stroke-width="4" stroke-miterlimit="10" cx="659.242" cy="280.187" r="13.108"/>
	
		<line fill="none" stroke="#EDE4BC" stroke-width="4" stroke-miterlimit="10" x1="668.883" y1="289.812" x2="679.698" y2="300.626"/>
	
		<line fill="none" stroke="#EDE4BC" stroke-width="4" stroke-miterlimit="10" x1="735.112" y1="284.095" x2="769.147" y2="284.095"/>
	
		<line fill="none" stroke="#EDE4BC" stroke-width="4" stroke-miterlimit="10" x1="752.461" y1="265.375" x2="751.827" y2="301.596"/>
	<text transform="matrix(1 0 0 1 251.7827 359.3882)" fill="#EDE4BC" font-family="'MyriadPro-Regular'" font-size="23.3385">S</text>
	<text transform="matrix(1 0 0 1 333.9497 359.3882)" fill="#EDE4BC" font-family="'MyriadPro-Regular'" font-size="23.3385">M</text>
	<text transform="matrix(1 0 0 1 415.5747 359.3882)" fill="#EDE4BC" font-family="'MyriadPro-Regular'" font-size="23.3385">T</text>
	<text transform="matrix(1 0 0 1 494.8716 359.3882)" fill="#EDE4BC" font-family="'MyriadPro-Regular'" font-size="23.3385">W</text>
	<text transform="matrix(1 0 0 1 579.0454 359.3882)" fill="#EDE4BC" font-family="'MyriadPro-Regular'" font-size="23.3385">T</text>
	<text transform="matrix(1 0 0 1 658.2681 359.3882)" fill="#EDE4BC" font-family="'MyriadPro-Regular'" font-size="23.3385">F</text>
	<text transform="matrix(1 0 0 1 741.4087 359.3882)" fill="#EDE4BC" font-family="'MyriadPro-Regular'" font-size="23.3385">S</text>
	<rect x="225.034" y="584" fill="none" stroke="#3F3F3F" stroke-miterlimit="10" width="68" height="107"/>
	<rect x="306.034" y="584" fill="none" stroke="#3F3F3F" stroke-miterlimit="10" width="69" height="107"/>
	<rect x="386.034" y="584" fill="none" stroke="#3F3F3F" stroke-miterlimit="10" width="69" height="107"/>
	<rect x="467.034" y="584" fill="none" stroke="#3F3F3F" stroke-miterlimit="10" width="68" height="107"/>
	<rect x="547.034" y="584" fill="none" stroke="#3F3F3F" stroke-miterlimit="10" width="69" height="107"/>
	<rect x="627.034" y="584" fill="none" stroke="#3F3F3F" stroke-miterlimit="10" width="70" height="107"/>
	<rect x="709.034" y="583" fill="none" stroke="#3F3F3F" stroke-miterlimit="10" width="69" height="107"/>
	<rect x="225.034" y="713" fill="none" stroke="#3F3F3F" stroke-miterlimit="10" width="68" height="108"/>
	<rect x="306.034" y="713" fill="none" stroke="#3F3F3F" stroke-miterlimit="10" width="69" height="108"/>
	<rect x="386.034" y="713" fill="none" stroke="#3F3F3F" stroke-miterlimit="10" width="69" height="108"/>
	<rect x="467.034" y="713" fill="none" stroke="#3F3F3F" stroke-miterlimit="10" width="68" height="108"/>
	<rect x="547.034" y="713" fill="none" stroke="#3F3F3F" stroke-miterlimit="10" width="69" height="108"/>
	<rect x="627.034" y="713" fill="none" stroke="#3F3F3F" stroke-miterlimit="10" width="70" height="108"/>
	<rect x="709.034" y="712" fill="none" stroke="#3F3F3F" stroke-miterlimit="10" width="69" height="108"/>
	<rect x="225.034" y="841" fill="none" stroke="#3F3F3F" stroke-miterlimit="10" width="68" height="108"/>
	<rect x="306.034" y="841" fill="none" stroke="#3F3F3F" stroke-miterlimit="10" width="69" height="108"/>
	<rect x="386.034" y="841" fill="none" stroke="#3F3F3F" stroke-miterlimit="10" width="69" height="108"/>
	<rect x="467.034" y="841" fill="none" stroke="#3F3F3F" stroke-miterlimit="10" width="68" height="108"/>
	<rect x="547.034" y="841" fill="none" stroke="#3F3F3F" stroke-miterlimit="10" width="69" height="108"/>
	<rect x="627.034" y="841" fill="none" stroke="#3F3F3F" stroke-miterlimit="10" width="70" height="108"/>
	<rect x="709.034" y="840" fill="none" stroke="#3F3F3F" stroke-miterlimit="10" width="69" height="108"/>
	<rect x="225.034" y="976" fill="none" stroke="#3F3F3F" stroke-miterlimit="10" width="68" height="106"/>
	<rect x="306.034" y="976" fill="none" stroke="#3F3F3F" stroke-miterlimit="10" width="69" height="106"/>
	<rect x="386.034" y="976" fill="none" stroke="#3F3F3F" stroke-miterlimit="10" width="69" height="106"/>
	<rect x="467.034" y="976" fill="none" stroke="#3F3F3F" stroke-miterlimit="10" width="68" height="106"/>
	<rect x="547.034" y="976" fill="none" stroke="#3F3F3F" stroke-miterlimit="10" width="69" height="106"/>
	<rect x="386.034" y="454" fill="none" stroke="#3F3F3F" stroke-miterlimit="10" width="69" height="107"/>
	<rect x="467.034" y="454" fill="none" stroke="#3F3F3F" stroke-miterlimit="10" width="68" height="107"/>
	<rect x="547.034" y="454" fill="none" stroke="#3F3F3F" stroke-miterlimit="10" width="69" height="107"/>
	<rect x="627.034" y="454" fill="none" stroke="#3F3F3F" stroke-miterlimit="10" width="70" height="107"/>
	<rect x="709.034" y="453" fill="none" stroke="#3F3F3F" stroke-miterlimit="10" width="69" height="107"/>
	<line fill="none" x1="210.813" y1="370.085" x2="787.5" y2="370.085"/>
	
		<line fill="none" stroke="#383838" stroke-width="2" stroke-miterlimit="10" x1="381.116" y1="439.128" x2="791.485" y2="439.128"/>
	
		<line fill="none" stroke="#383838" stroke-width="2" stroke-miterlimit="10" x1="210.813" y1="571.379" x2="791.485" y2="571.379"/>
	<line fill="none" stroke="#383838" stroke-width="2" stroke-miterlimit="10" x1="210.813" y1="701.685" x2="787.5" y2="701.685"/>
	
		<line fill="none" stroke="#383838" stroke-width="2" stroke-miterlimit="10" x1="213.841" y1="831.021" x2="790.528" y2="831.021"/>
	<line fill="none" stroke="#383838" stroke-width="2" stroke-miterlimit="10" x1="210.813" y1="961.328" x2="626.17" y2="961.328"/>
	
		<line fill="none" stroke="#383838" stroke-width="2" stroke-miterlimit="10" x1="210.417" y1="1152.07" x2="791.485" y2="1152.07"/>
	<text transform="matrix(1 0 0 1 225.5269 1204.5815)" fill="#D40000" font-family="'MyriadPro-Semibold'" font-size="37.925">day</text>
	<text transform="matrix(1 0 0 1 430.7114 1204.5815)" fill="#D40000" font-family="'MyriadPro-Semibold'" font-size="37.925">calendars</text>
	<text transform="matrix(1 0 0 1 687.436 1204.5815)" fill="#D40000" font-family="'MyriadPro-Semibold'" font-size="37.925">    day</text>
	<text transform="matrix(1 0 0 1 398.0728 419.7139)" fill="#D40000" font-family="'MyriadPro-Semibold'" font-size="37.925">XX</text>
</g>
</svg>
