<?xml version="1.0" encoding="utf-8"?>
<!-- Generator: Adobe Illustrator 16.0.4, SVG Export Plug-In . SVG Version: 6.00 Build 0)  -->
<!DOCTYPE svg PUBLIC "-//W3C//DTD SVG 1.1//EN" "http://www.w3.org/Graphics/SVG/1.1/DTD/svg11.dtd">
<svg version="1.1" id="Layer_1" xmlns="http://www.w3.org/2000/svg" xmlns:xlink="http://www.w3.org/1999/xlink" x="0px" y="0px"
	 width="698.07px" height="1400px" viewBox="150.967 0 698.07 1400" enable-background="new 150.967 0 698.07 1400"
	 xml:space="preserve">
<filter  width="103.8%" height="105.7%" id="new-task-f" filterUnits="objectBoundingBox" x="-1.9%" y="-1.4%">
	<feOffset  dy="1" in="SourceAlpha" result="shadowOffsetOuter1"></feOffset>
	<feComposite  in="shadowOffsetOuter1" in2="SourceAlpha" operator="out" result="shadowOffsetOuter1"></feComposite>
	<feColorMatrix  values="0 0 0 0 0 0 0 0 0 0 0 0 0 0 0 0 0 0 0.35 0" in="shadowOffsetOuter1"></feColorMatrix>
</filter>
<filter  width="100.8%" height="105.7%" id="new-task-d" filterUnits="objectBoundingBox" x="-.4%" y="-1.4%">
	<feOffset  dy="1" in="SourceAlpha" result="shadowOffsetOuter1"></feOffset>
	<feComposite  in="shadowOffsetOuter1" in2="SourceAlpha" operator="out" result="shadowOffsetOuter1"></feComposite>
	<feColorMatrix  values="0 0 0 0 0 0 0 0 0 0 0 0 0 0 0 0 0 0 0.35 0" in="shadowOffsetOuter1"></feColorMatrix>
</filter>
<filter  width="101.4%" height="105.7%" id="new-task-b" filterUnits="objectBoundingBox" x="-.7%" y="-1.4%">
	<feOffset  dy="1" in="SourceAlpha" result="shadowOffsetOuter1"></feOffset>
	<feComposite  in="shadowOffsetOuter1" in2="SourceAlpha" operator="out" result="shadowOffsetOuter1"></feComposite>
	<feColorMatrix  values="0 0 0 0 0 0 0 0 0 0 0 0 0 0 0 0 0 0 0.35 0" in="shadowOffsetOuter1"></feColorMatrix>
</filter>
<g id="Layer_1_1_">
	<g>
		<path fill="#D20009" d="M845.167,359.636v926.334c0,39.65-4.129,54.027-11.881,68.523s-19.129,25.873-33.625,33.625
			S770.789,1400,731.136,1400H270.797c-39.65,0-54.028-4.129-68.524-11.881s-25.872-19.129-33.624-33.625
			s-11.881-28.873-11.881-68.523V471.823h-0.843c-1.724,0-2.349-0.183-2.979-0.52c-0.63-0.337-1.125-0.832-1.462-1.462
			s-0.517-1.255-0.517-2.979v-80.968c0-1.724,0.18-2.349,0.517-2.979s0.832-1.125,1.462-1.462c0.63-0.337,1.255-0.517,2.979-0.517
			h0.843v-21.271h-0.843c-1.724,0-2.349-0.179-2.979-0.517c-0.63-0.337-1.125-0.832-1.462-1.462s-0.517-1.255-0.517-2.979V273.74
			c0-1.724,0.18-2.349,0.517-2.979c0.337-0.63,0.832-1.125,1.462-1.462c0.63-0.337,1.255-0.517,2.979-0.517h0.843v-52.21h-0.843
			c-1.724,0-2.349-0.18-2.979-0.517c-0.63-0.337-1.125-0.832-1.462-1.462c-0.337-0.63-0.517-1.255-0.517-2.979v-40.361
			c0-1.724,0.18-2.349,0.517-2.979s0.832-1.125,1.462-1.462c0.63-0.337,1.255-0.517,2.979-0.517h0.843v-52.269
			c0-39.65,4.128-54.029,11.881-68.524c7.752-14.496,19.128-25.872,33.624-33.624C216.769,4.128,231.146,0,270.797,0h460.339
			c39.65,0,54.027,4.128,68.523,11.881c14.496,7.752,25.873,19.128,33.625,33.624s11.881,28.874,11.881,68.524v154.788
			c0.941,0.065,1.414,0.23,1.889,0.484c0.629,0.337,1.125,0.832,1.461,1.462c0.338,0.63,0.521,1.255,0.521,2.979v80.969
			c0,1.724-0.184,2.349-0.521,2.979c-0.336,0.63-0.832,1.125-1.461,1.462C846.582,359.406,846.107,359.57,845.167,359.636z
			 M500.966,1361.326c25.197,0,46.408-21.211,46.408-46.408c0-27.133-21.211-48.344-46.408-48.344
			c-27.133,0-48.344,21.211-48.344,48.344C452.625,1340.115,473.833,1361.326,500.966,1361.326z M500.966,1357.458
			c-24.996,0-44.475-19.479-44.475-42.541c0-24.996,19.479-44.475,44.475-44.475c23.062,0,42.541,19.479,42.541,44.475
			C543.507,1337.979,524.031,1357.458,500.966,1357.458z M382.042,94.751c5.875,0,10.637-4.762,10.637-10.635
			c0-5.874-4.762-10.636-10.637-10.636c-5.873,0-10.635,4.762-10.635,10.636S376.169,94.751,382.042,94.751z M500.966,52.21
			c3.203,0,5.801-2.597,5.801-5.801s-2.598-5.801-5.801-5.801c-3.205,0-5.801,2.597-5.801,5.801S497.761,52.21,500.966,52.21z
			 M443.921,79.282c-2.67,0-4.834,2.165-4.834,4.834s2.164,4.834,4.834,4.834h114.088c2.67,0,4.836-2.164,4.836-4.834
			s-2.166-4.834-4.836-4.834H443.921z"/>
		<path fill="#0A0A0A" d="M197.375,156.63h605.25c2.137,0,3.869,1.731,3.869,3.867V1237.57c0,2.135-1.732,3.864-3.869,3.864h-605.25
			c-2.136,0-3.867-1.729-3.867-3.864V160.497C193.508,158.361,195.24,156.63,197.375,156.63z"/>
		<g display="none">
			<g display="inline">
				<rect id="new-task-a" x="197.375" y="887.57" fill-opacity="0.6" width="605.25" height="348.063"/>
			</g>
			<g display="inline">
				<rect id="new-task-a_1_" x="197.375" y="887.57" fill-opacity="0.1" width="605.25" height="348.063"/>
			</g>
		</g>
		<g display="none" filter="url(#new-task-b)">
			<path id="new-task-c_3_" display="inline" d="M666.226,1161.511h121.891c5.34,0,9.668,4.328,9.668,9.668v48.343
				c0,5.342-4.328,9.672-9.668,9.672H666.226c-5.34,0-9.668-4.33-9.668-9.672v-48.343
				C656.558,1165.839,660.886,1161.511,666.226,1161.511z"/>
		</g>
		<g display="none">
			<path id="new-task-c_1_" display="inline" fill="#FFFFFF" fill-opacity="0.13" d="M666.226,1161.511h121.891
				c5.34,0,9.668,4.328,9.668,9.668v48.343c0,5.342-4.328,9.672-9.668,9.672H666.226c-5.34,0-9.668-4.33-9.668-9.672v-48.343
				C656.558,1165.839,660.886,1161.511,666.226,1161.511z"/>
		</g>
		<path display="none" fill="#FFFFFF" d="M686.843,1204.375v-16.287h2.48v2.418h0.24c0.482-1.586,2.355-2.703,4.518-2.703
			c0.424,0,0.967,0.029,1.299,0.074v2.6c-0.211-0.061-1.145-0.149-1.662-0.149c-2.477,0-4.271,1.662-4.271,3.959v10.092
			L686.843,1204.375L686.843,1204.375z M704.05,1190.097c-2.598,0-4.41,1.904-4.604,4.789h8.975
			C708.359,1192.001,706.634,1190.097,704.05,1190.097z M708.341,1200.16h2.602c-0.785,2.795-3.295,4.502-6.857,4.502
			c-4.518,0-7.342-3.266-7.342-8.416c0-5.121,2.869-8.443,7.342-8.443c4.395,0,7.07,3.127,7.07,8.188v0.998h-11.709v0.119
			c0.137,3.219,1.934,5.258,4.695,5.258C706.244,1202.365,707.664,1201.593,708.341,1200.16z M715.701,1183.873h2.6v4.215h3.625
			v2.176H718.3v9.22c0,1.918,0.727,2.731,2.416,2.731c0.469,0,0.727-0.016,1.209-0.061v2.188c-0.514,0.092-1.012,0.15-1.523,0.15
			c-3.355,0-4.699-1.238-4.699-4.353v-9.881h-2.629v-2.176h2.629L715.701,1183.873L715.701,1183.873z M738.408,1188.087v16.287
			h-2.48v-2.555h-0.24c-0.814,1.812-2.555,2.842-5.047,2.842c-3.654,0-5.559-2.176-5.559-6.029v-10.545h2.598V1198
			c0,2.93,1.088,4.289,3.688,4.289c2.871,0,4.439-1.707,4.439-4.562v-9.639L738.408,1188.087L738.408,1188.087z M742.681,1204.375
			v-16.287h2.48v2.418h0.24c0.482-1.586,2.355-2.703,4.518-2.703c0.424,0,0.967,0.029,1.299,0.074v2.6
			c-0.211-0.061-1.145-0.149-1.662-0.149c-2.477,0-4.27,1.662-4.27,3.959v10.092L742.681,1204.375L742.681,1204.375z
			 M754.15,1204.375v-16.287h2.479v2.568h0.24c0.812-1.797,2.4-2.854,4.895-2.854c3.654,0,5.695,2.16,5.695,6.027v10.545h-2.6v-9.91
			c0-2.932-1.238-4.322-3.836-4.322c-2.602,0-4.275,1.738-4.275,4.597v9.639L754.15,1204.375L754.15,1204.375z"/>
		<g display="none" filter="url(#new-task-d)">
			<path id="new-task-e_3_" display="inline" d="M423.32,1161.511h213.885c5.34,0,9.668,4.328,9.668,9.668v48.343
				c0,5.342-4.328,9.672-9.668,9.672H423.32c-5.344,0-9.668-4.33-9.668-9.672v-48.343
				C413.652,1165.839,417.978,1161.511,423.32,1161.511z"/>
		</g>
		<g display="none">
			<path id="new-task-e_1_" display="inline" fill="#FFFFFF" fill-opacity="0.3" d="M423.32,1161.511h213.885
				c5.34,0,9.668,4.328,9.668,9.668v48.343c0,5.342-4.328,9.672-9.668,9.672H423.32c-5.344,0-9.668-4.33-9.668-9.672v-48.343
				C413.652,1165.839,417.978,1161.511,423.32,1161.511z"/>
		</g>
		<path display="none" fill="#FFFFFF" d="M491.226,1192.544c0-2.703,2.613-4.742,6.072-4.742c3.414,0,5.787,1.691,6.133,4.365
			h-2.562c-0.352-1.299-1.617-2.16-3.582-2.16c-1.938,0-3.443,0.982-3.443,2.433c0,1.116,0.906,1.812,2.824,2.28l2.508,0.605
			c3.066,0.737,4.547,2.067,4.547,4.412c0,2.913-2.822,4.924-6.523,4.924c-3.625,0-6.119-1.736-6.406-4.441h2.676
			c0.439,1.375,1.736,2.252,3.82,2.252c2.189,0,3.762-1.043,3.762-2.539c0-1.114-0.846-1.873-2.582-2.297l-2.795-0.68
			C492.617,1196.216,491.226,1194.902,491.226,1192.544z M515.113,1187.802c4.15,0,6.844,3.31,6.844,8.433
			c0,5.09-2.705,8.43-6.844,8.43c-2.326,0-4.199-1.014-5.096-2.734h-0.238v7.888h-2.602v-21.728h2.48v2.721h0.242
			C510.943,1188.936,512.89,1187.802,515.113,1187.802z M514.494,1202.32c2.99,0,4.77-2.281,4.77-6.09
			c0-3.81-1.779-6.091-4.76-6.091c-2.945,0-4.803,2.345-4.803,6.091C509.705,1199.962,511.562,1202.32,514.494,1202.32z
			 M530.429,1202.38c2.678,0,4.654-1.754,4.654-4.08v-1.496l-4.383,0.287c-2.479,0.168-3.564,1.027-3.564,2.66
			C527.136,1201.414,528.542,1202.38,530.429,1202.38z M529.949,1204.662c-3.158,0-5.5-1.875-5.5-4.853
			c0-2.916,2.145-4.594,5.938-4.817l4.699-0.287v-1.48c0-2.008-1.254-3.108-3.689-3.108c-1.947,0-3.311,0.739-3.672,2.021h-2.629
			c0.352-2.61,2.916-4.334,6.395-4.334c3.973,0,6.189,2.039,6.189,5.422v11.15h-2.479v-2.402h-0.24
			C533.906,1203.708,532.125,1204.662,529.949,1204.662z M555.341,1193.074h-2.629c-0.422-1.617-1.854-2.935-4.199-2.935
			c-2.93,0-4.77,2.345-4.77,6.029c0,3.762,1.873,6.146,4.77,6.146c2.191,0,3.721-1.015,4.199-2.854h2.629
			c-0.469,2.99-2.896,5.197-6.811,5.197c-4.562,0-7.48-3.312-7.48-8.49c0-5.076,2.9-8.369,7.463-8.369
			C552.472,1187.802,554.888,1190.173,555.341,1193.074z M565.056,1190.097c-2.598,0-4.408,1.904-4.604,4.789h8.973
			C569.363,1192.001,567.64,1190.097,565.056,1190.097z M569.347,1200.16h2.602c-0.785,2.795-3.293,4.502-6.859,4.502
			c-4.516,0-7.342-3.266-7.342-8.416c0-5.121,2.871-8.443,7.342-8.443c4.396,0,7.07,3.127,7.07,8.188v0.998h-11.709v0.119
			c0.137,3.219,1.934,5.258,4.699,5.258C567.25,1202.365,568.667,1201.593,569.347,1200.16z"/>
		<g display="none" filter="url(#new-task-f)">
			<path id="new-task-g_2_" display="inline" d="M362.792,1161.511h31.504c5.34,0,9.67,4.328,9.67,9.668v48.343
				c0,5.342-4.33,9.672-9.67,9.672h-31.504c-5.34,0-9.668-4.33-9.668-9.672v-48.343
				C353.125,1165.839,357.455,1161.511,362.792,1161.511z"/>
		</g>
		<g transform="translate(24 404)" display="none">
			
				<linearGradient id="SVGID_1_" gradientUnits="userSpaceOnUse" x1="-396.2754" y1="-10.5103" x2="-396.2754" y2="-9.5103" gradientTransform="matrix(605.2486 0 0 106.3536 240320.9375 1495.1406)">
				<stop  offset="0" style="stop-color:#0A0A0A;stop-opacity:0"/>
				<stop  offset="1" style="stop-color:#0A0A0A"/>
			</linearGradient>
			
				<rect x="173.375" y="377.216" display="inline" opacity="0.9" fill="url(#SVGID_1_)" enable-background="new    " width="605.25" height="106.354"/>
			
				<linearGradient id="SVGID_2_" gradientUnits="userSpaceOnUse" x1="-396.2754" y1="-10.5103" x2="-396.2754" y2="-9.5103" gradientTransform="matrix(605.2486 0 0 106.3536 240320.9375 1495.1406)">
				<stop  offset="0" style="stop-color:#101010;stop-opacity:0"/>
				<stop  offset="1" style="stop-color:#101010"/>
			</linearGradient>
			<rect x="173.375" y="377.216" display="inline" fill="url(#SVGID_2_)" width="605.25" height="106.354"/>
		</g>
		<path display="none" opacity="0.3" fill="#D0021B" enable-background="new    " d="M462.583,834.869h4.045
			c0.258,2.068,2.312,3.402,5.25,3.402c2.729,0,4.703-1.396,4.703-3.341c0-1.67-1.271-2.646-4.238-3.34l-3.002-0.688
			c-4.205-0.947-6.18-3.033-6.18-6.484c0-4.207,3.436-7,8.619-7c4.861,0,8.379,2.793,8.568,6.775h-3.965
			c-0.289-2.039-2.086-3.324-4.623-3.324c-2.664,0-4.43,1.285-4.43,3.26c0,1.558,1.172,2.471,4.045,3.129l2.664,0.611
			c4.703,1.059,6.678,3.018,6.678,6.549c0,4.51-3.479,7.318-9.102,7.318C466.306,841.738,462.792,839.074,462.583,834.869z
			 M485.703,819.298h3.963v4.414h3.758v3.178h-3.758v8.619c0,1.734,0.74,2.504,2.408,2.504c0.561,0,0.867-0.028,1.35-0.08v3.115
			c-0.578,0.111-1.316,0.191-2.088,0.191c-4.029,0-5.633-1.363-5.633-4.769v-9.584h-2.777v-3.178h2.777V819.298L485.703,819.298z
			 M502.878,838.32c2.408,0,4.205-1.562,4.205-3.599v-1.396l-3.965,0.258c-2.23,0.145-3.273,0.947-3.273,2.375
			C499.845,837.438,501.115,838.32,502.878,838.32z M501.708,841.449c-3.387,0-5.812-2.058-5.812-5.267
			c0-3.18,2.395-5.008,6.66-5.266l4.525-0.273v-1.477c0-1.717-1.156-2.68-3.307-2.68c-1.83,0-3.082,0.643-3.451,1.83h-3.756
			c0.32-3.101,3.227-5.072,7.398-5.072c4.512,0,7.047,2.199,7.047,5.922v11.99h-3.838v-2.406h-0.27
			C505.927,840.455,504.001,841.449,501.708,841.449z M515.275,841.16v-17.562h3.838v2.73h0.27c0.482-1.734,2.377-3.021,4.639-3.021
			c0.578,0,1.285,0.062,1.654,0.179v3.688c-0.305-0.108-1.365-0.225-2.039-0.225c-2.584,0-4.383,1.604-4.383,4.061v10.146h-3.979
			V841.16z M530.478,819.298h3.969v4.414h3.756v3.178h-3.756v8.619c0,1.734,0.734,2.504,2.404,2.504c0.562,0,0.865-0.028,1.352-0.08
			v3.115c-0.578,0.111-1.316,0.191-2.086,0.191c-4.029,0-5.637-1.363-5.637-4.769v-9.584h-2.775v-3.178h2.775L530.478,819.298
			L530.478,819.298z"/>
		<path display="none" fill="#656153" d="M787.156,187.566v-10.629c0-1.6-1.307-2.904-2.904-2.904h-32.865
			c-1.604,0-2.904,1.301-2.904,2.904v10.629c0,1.601,1.297,2.904,2.885,2.904h32.906C785.861,190.47,787.156,189.17,787.156,187.566
			z M787.078,190.47v1.028c-0.791,0.57-1.76,0.906-2.805,0.906h1.398h-1.398v-1.934H787.078z M785.673,192.403h1.402H785.673z
			 M787.078,190.47h-2.805v1.934h-32.908c-2.66,0-4.816-2.173-4.816-4.837v-10.629c0-2.672,2.168-4.837,4.838-4.837h32.865
			c2.672,0,4.838,2.173,4.838,4.837v10.629c0,1.62-0.795,3.054-2.012,3.932V190.47z"/>
		<path fill="#656153" d="M791.021,178.867c1.67,0.43,2.898,1.944,2.898,3.746c0,1.802-1.229,3.316-2.898,3.746V178.867z"/>
		<path fill="#EEE3C1" d="M752.347,175.967h30.939c1.068,0,1.934,0.866,1.934,1.934v8.702c0,1.068-0.861,1.934-1.934,1.934h-30.939
			c-1.064,0-1.934-0.866-1.934-1.934V177.9C750.416,176.833,751.281,175.967,752.347,175.967z"/>
		<path fill="#EEE3C1" d="M482.353,190.877c-3.922,0-6.24-3.172-6.24-8.6c0-5.405,2.354-8.566,6.24-8.566
			c3.875,0,6.23,3.161,6.23,8.588C488.583,187.705,486.261,190.877,482.353,190.877z M482.353,188.453
			c2.072,0,3.273-2.153,3.273-6.175c0-4-1.225-6.13-3.273-6.13c-2.051,0-3.283,2.142-3.283,6.13
			C479.068,186.3,480.281,188.453,482.353,188.453z M493.875,188.736c-1.064,0-1.812-0.771-1.812-1.791
			c0-1.031,0.748-1.79,1.812-1.79c1.076,0,1.812,0.759,1.812,1.79C495.687,187.966,494.953,188.736,493.875,188.736z
			 M493.875,180.238c-1.064,0-1.812-0.759-1.812-1.779c0-1.031,0.748-1.79,1.812-1.79c1.076,0,1.812,0.759,1.812,1.79
			C495.687,179.479,494.953,180.238,493.875,180.238z M505.412,190.877c-3.922,0-6.244-3.172-6.244-8.6
			c0-5.405,2.357-8.566,6.244-8.566c3.873,0,6.229,3.161,6.229,8.588C511.64,187.705,509.32,190.877,505.412,190.877z
			 M505.412,188.453c2.072,0,3.27-2.153,3.27-6.175c0-4-1.223-6.13-3.27-6.13c-2.049,0-3.287,2.142-3.287,6.13
			C502.125,186.3,503.335,188.453,505.412,188.453z M521.08,190.866c-2.4,0-4.293-1.133-5.381-3.229
			c-0.764-1.337-1.156-3.082-1.156-5.167c0-5.496,2.459-8.759,6.629-8.759c2.98,0,5.268,1.768,5.756,4.453h-2.924
			c-0.363-1.235-1.449-2.005-2.854-2.005c-2.395,0-3.811,2.232-3.811,5.971h0.193c0.77-1.552,2.311-2.447,4.234-2.447
			c3.105,0,5.385,2.3,5.385,5.438C527.154,188.487,524.636,190.866,521.08,190.866z M521.044,188.43c1.836,0,3.24-1.394,3.24-3.218
			c0-1.87-1.348-3.207-3.217-3.207c-1.871,0-3.24,1.337-3.24,3.161C517.83,187.025,519.22,188.43,521.044,188.43z M263.401,186.483
			l-4.103,3.986l-4.182-4.051c1.001-1.109,2.473-1.811,4.114-1.811C260.902,184.608,262.399,185.336,263.401,186.483z
			 M267.614,182.39l-2.105,2.045c-1.545-1.665-3.786-2.712-6.279-2.712c-2.463,0-4.68,1.022-6.223,2.653l-2.108-2.042
			c2.083-2.152,5.045-3.497,8.331-3.497C262.544,178.837,265.528,180.205,267.614,182.39z M271.823,178.301l-2.104,2.044
			c-2.626-2.704-6.354-4.393-10.489-4.393c-4.108,0-7.815,1.667-10.438,4.341l-2.107-2.041c3.163-3.196,7.614-5.186,12.545-5.186
			C264.186,173.066,268.658,175.076,271.823,178.301z M234.116,173.061c0-0.531,0.446-0.961,0.978-0.961h2.878
			c0.54,0,0.978,0.418,0.978,0.961v16.447c0,0.531-0.446,0.962-0.978,0.962h-2.878c-0.54,0-0.978-0.418-0.978-0.962V173.061z
			 M226.381,177.907c0-0.538,0.446-0.974,0.978-0.974h2.878c0.54,0,0.978,0.45,0.978,0.974v11.589c0,0.538-0.446,0.974-0.978,0.974
			h-2.878c-0.54,0-0.978-0.451-0.978-0.974V177.907z M218.646,181.764c0-0.532,0.446-0.962,0.978-0.962h2.878
			c0.54,0,0.978,0.416,0.978,0.962v7.744c0,0.531-0.446,0.962-0.978,0.962h-2.878c-0.54,0-0.978-0.416-0.978-0.962V181.764z
			 M210.912,185.626c0-0.529,0.446-0.958,0.978-0.958h2.878c0.54,0,0.979,0.417,0.979,0.958v3.885c0,0.529-0.446,0.958-0.979,0.958
			h-2.878c-0.54,0-0.978-0.417-0.978-0.958V185.626z"/>
	</g>
</g>
<g id="Layer_2" display="none">
	
		<rect x="565.751" y="266.348" display="inline" fill="none" stroke="#EDE4BC" stroke-width="4" stroke-miterlimit="10" width="28.525" height="17.99"/>
	
		<line display="inline" fill="none" stroke="#EDE4BC" stroke-width="4" stroke-miterlimit="10" x1="564.13" y1="292.395" x2="596.222" y2="292.395"/>
	
		<line display="inline" fill="none" stroke="#EDE4BC" stroke-width="4" stroke-miterlimit="10" x1="564.13" y1="299.62" x2="596.222" y2="299.62"/>
	
		<circle display="inline" fill="none" stroke="#EDE4BC" stroke-width="4" stroke-miterlimit="10" cx="659.242" cy="280.187" r="13.108"/>
	
		<line display="inline" fill="none" stroke="#EDE4BC" stroke-width="4" stroke-miterlimit="10" x1="668.882" y1="289.812" x2="679.699" y2="300.626"/>
	
		<line display="inline" fill="none" stroke="#EDE4BC" stroke-width="4" stroke-miterlimit="10" x1="735.113" y1="284.095" x2="769.146" y2="284.095"/>
	
		<line display="inline" fill="none" stroke="#EDE4BC" stroke-width="4" stroke-miterlimit="10" x1="752.46" y1="265.375" x2="751.828" y2="301.596"/>
	
		<text transform="matrix(1 0 0 1 251.7827 359.3887)" display="inline" fill="#EDE4BC" font-family="'MyriadPro-Regular'" font-size="23.3385">S</text>
	
		<text transform="matrix(1 0 0 1 333.9497 359.3887)" display="inline" fill="#EDE4BC" font-family="'MyriadPro-Regular'" font-size="23.3385">M</text>
	
		<text transform="matrix(1 0 0 1 415.5747 359.3887)" display="inline" fill="#EDE4BC" font-family="'MyriadPro-Regular'" font-size="23.3385">T</text>
	
		<text transform="matrix(1 0 0 1 494.8716 359.3887)" display="inline" fill="#EDE4BC" font-family="'MyriadPro-Regular'" font-size="23.3385">W</text>
	
		<text transform="matrix(1 0 0 1 579.0454 359.3887)" display="inline" fill="#EDE4BC" font-family="'MyriadPro-Regular'" font-size="23.3385">T</text>
	
		<text transform="matrix(1 0 0 1 658.2681 359.3887)" display="inline" fill="#EDE4BC" font-family="'MyriadPro-Regular'" font-size="23.3385">F</text>
	
		<text transform="matrix(1 0 0 1 741.4087 359.3887)" display="inline" fill="#EDE4BC" font-family="'MyriadPro-Regular'" font-size="23.3385">S</text>
	<rect x="225.034" y="584" display="inline" fill="none" stroke="#3F3F3F" stroke-miterlimit="10" width="68" height="107"/>
	<rect x="306.034" y="584" display="inline" fill="none" stroke="#3F3F3F" stroke-miterlimit="10" width="69" height="107"/>
	<rect x="386.035" y="584" display="inline" fill="none" stroke="#3F3F3F" stroke-miterlimit="10" width="69" height="107"/>
	<rect x="467.035" y="584" display="inline" fill="none" stroke="#3F3F3F" stroke-miterlimit="10" width="68" height="107"/>
	<rect x="547.035" y="584" display="inline" fill="none" stroke="#3F3F3F" stroke-miterlimit="10" width="69" height="107"/>
	<rect x="627.035" y="584" display="inline" fill="none" stroke="#3F3F3F" stroke-miterlimit="10" width="70" height="107"/>
	<rect x="709.035" y="583" display="inline" fill="none" stroke="#3F3F3F" stroke-miterlimit="10" width="69" height="107"/>
	<rect x="225.034" y="713" display="inline" fill="none" stroke="#3F3F3F" stroke-miterlimit="10" width="68" height="108"/>
	<rect x="306.034" y="713" display="inline" fill="none" stroke="#3F3F3F" stroke-miterlimit="10" width="69" height="108"/>
	<rect x="386.035" y="713" display="inline" fill="none" stroke="#3F3F3F" stroke-miterlimit="10" width="69" height="108"/>
	<rect x="467.035" y="713" display="inline" fill="none" stroke="#3F3F3F" stroke-miterlimit="10" width="68" height="108"/>
	<rect x="547.035" y="713" display="inline" fill="none" stroke="#3F3F3F" stroke-miterlimit="10" width="69" height="108"/>
	<rect x="627.035" y="713" display="inline" fill="none" stroke="#3F3F3F" stroke-miterlimit="10" width="70" height="108"/>
	<rect x="709.035" y="712" display="inline" fill="none" stroke="#3F3F3F" stroke-miterlimit="10" width="69" height="108"/>
	<rect x="225.034" y="841" display="inline" fill="none" stroke="#3F3F3F" stroke-miterlimit="10" width="68" height="108"/>
	<rect x="306.034" y="841" display="inline" fill="none" stroke="#3F3F3F" stroke-miterlimit="10" width="69" height="108"/>
	<rect x="386.035" y="841" display="inline" fill="none" stroke="#3F3F3F" stroke-miterlimit="10" width="69" height="108"/>
	<rect x="467.035" y="841" display="inline" fill="none" stroke="#3F3F3F" stroke-miterlimit="10" width="68" height="108"/>
	<rect x="547.035" y="841" display="inline" fill="none" stroke="#3F3F3F" stroke-miterlimit="10" width="69" height="108"/>
	<rect x="627.035" y="841" display="inline" fill="none" stroke="#3F3F3F" stroke-miterlimit="10" width="70" height="108"/>
	<rect x="709.035" y="840" display="inline" fill="none" stroke="#3F3F3F" stroke-miterlimit="10" width="69" height="108"/>
	<rect x="225.034" y="976" display="inline" fill="none" stroke="#3F3F3F" stroke-miterlimit="10" width="68" height="106"/>
	<rect x="306.034" y="976" display="inline" fill="none" stroke="#3F3F3F" stroke-miterlimit="10" width="69" height="106"/>
	<rect x="386.035" y="976" display="inline" fill="none" stroke="#3F3F3F" stroke-miterlimit="10" width="69" height="106"/>
	<rect x="467.035" y="976" display="inline" fill="none" stroke="#3F3F3F" stroke-miterlimit="10" width="68" height="106"/>
	<rect x="547.035" y="976" display="inline" fill="none" stroke="#3F3F3F" stroke-miterlimit="10" width="69" height="106"/>
	<rect x="386.035" y="454" display="inline" fill="none" stroke="#3F3F3F" stroke-miterlimit="10" width="69" height="107"/>
	<rect x="467.035" y="454" display="inline" fill="none" stroke="#3F3F3F" stroke-miterlimit="10" width="68" height="107"/>
	<rect x="547.035" y="454" display="inline" fill="none" stroke="#3F3F3F" stroke-miterlimit="10" width="69" height="107"/>
	<rect x="627.035" y="454" display="inline" fill="none" stroke="#3F3F3F" stroke-miterlimit="10" width="70" height="107"/>
	<rect x="709.035" y="453" display="inline" fill="none" stroke="#3F3F3F" stroke-miterlimit="10" width="69" height="107"/>
	<line display="inline" fill="none" x1="210.813" y1="370.085" x2="787.5" y2="370.085"/>
	
		<line display="inline" fill="none" stroke="#383838" stroke-width="2" stroke-miterlimit="10" x1="381.117" y1="439.128" x2="791.486" y2="439.128"/>
	
		<line display="inline" fill="none" stroke="#383838" stroke-width="2" stroke-miterlimit="10" x1="210.813" y1="571.379" x2="791.486" y2="571.379"/>
	
		<line display="inline" fill="none" stroke="#383838" stroke-width="2" stroke-miterlimit="10" x1="210.813" y1="701.685" x2="787.5" y2="701.685"/>
	
		<line display="inline" fill="none" stroke="#383838" stroke-width="2" stroke-miterlimit="10" x1="213.841" y1="831.021" x2="790.529" y2="831.021"/>
	
		<line display="inline" fill="none" stroke="#383838" stroke-width="2" stroke-miterlimit="10" x1="210.813" y1="961.328" x2="626.169" y2="961.328"/>
	
		<line display="inline" fill="none" stroke="#383838" stroke-width="2" stroke-miterlimit="10" x1="210.417" y1="1152.07" x2="791.486" y2="1152.07"/>
	
		<text transform="matrix(1 0 0 1 225.5269 1204.582)" display="inline" fill="#D40000" font-family="'MyriadPro-Semibold'" font-size="37.925">day</text>
	
		<text transform="matrix(1 0 0 1 430.7114 1204.582)" display="inline" fill="#D40000" font-family="'MyriadPro-Semibold'" font-size="37.925">calendars</text>
	
		<text transform="matrix(1 0 0 1 687.436 1204.582)" display="inline" fill="#D40000" font-family="'MyriadPro-Semibold'" font-size="37.925">    day</text>
	
		<text transform="matrix(1 0 0 1 398.0728 419.7139)" display="inline" fill="#D40000" font-family="'MyriadPro-Semibold'" font-size="37.925">XX</text>
</g>
</svg>
